inDegrees=no
num_controls=7
num_derivatives=13
num_iterations=127
num_multipliers=7
num_parameters=0
num_slacks=7
num_states=26
objective=0.477101
objective_accelerations=0.045447
objective_balance=0.003583
objective_effort=0.040718
objective_height=0.381696
objective_ligament=0.005658
solver_duration=1727.689414
status=Solve_Succeeded
success=true
DataType=double
version=3
OpenSimVersion=4.5
endheader
time	/jointset/ground_pelvis/pelvis_tilt/value	/jointset/ground_pelvis/pelvis_tx/value	/jointset/ground_pelvis/pelvis_ty/value	/jointset/hip_l/hip_flexion_l/value	/jointset/hip_l/hip_adduction_l/value	/jointset/hip_l/hip_rotation_l/value	/jointset/back/lumbar_extension/value	/jointset/patellofemoral_l/patellar_flexion_l/value	/jointset/knee_l/knee_flexion_l/value	/jointset/knee_l/knee_adduction_l/value	/jointset/knee_l/knee_rotation_l/value	/jointset/ankle_l/ankle_angle_l/value	/jointset/subtalar_l/subtalar_angle_l/value	/jointset/ground_pelvis/pelvis_tilt/speed	/jointset/ground_pelvis/pelvis_tx/speed	/jointset/ground_pelvis/pelvis_ty/speed	/jointset/hip_l/hip_flexion_l/speed	/jointset/hip_l/hip_adduction_l/speed	/jointset/hip_l/hip_rotation_l/speed	/jointset/back/lumbar_extension/speed	/jointset/patellofemoral_l/patellar_flexion_l/speed	/jointset/knee_l/knee_flexion_l/speed	/jointset/knee_l/knee_adduction_l/speed	/jointset/knee_l/knee_rotation_l/speed	/jointset/ankle_l/ankle_angle_l/speed	/jointset/subtalar_l/subtalar_angle_l/speed	/forceset/tau_hip_flexion_l	/forceset/tau_hip_adduction_l	/forceset/tau_hip_rotation_l	/forceset/tau_knee_flexion_l	/forceset/tau_ankle_angle_l	/forceset/tau_subtalar_angle_l	/forceset/tau_lumbar_extension	lambda_cid13_p0	lambda_cid13_p1	lambda_cid13_p2	lambda_cid13_p3	lambda_cid13_p4	lambda_cid13_p5	lambda_cid14_p0	/jointset/ground_pelvis/pelvis_tilt/accel	/jointset/ground_pelvis/pelvis_tx/accel	/jointset/ground_pelvis/pelvis_ty/accel	/jointset/hip_l/hip_flexion_l/accel	/jointset/hip_l/hip_adduction_l/accel	/jointset/hip_l/hip_rotation_l/accel	/jointset/back/lumbar_extension/accel	/jointset/patellofemoral_l/patellar_flexion_l/accel	/jointset/knee_l/knee_flexion_l/accel	/jointset/knee_l/knee_adduction_l/accel	/jointset/knee_l/knee_rotation_l/accel	/jointset/ankle_l/ankle_angle_l/accel	/jointset/subtalar_l/subtalar_angle_l/accel	gamma_cid13_p0	gamma_cid13_p1	gamma_cid13_p2	gamma_cid13_p3	gamma_cid13_p4	gamma_cid13_p5	gamma_cid14_p0
1	-0.1039322340579961	-0.0565686720943162	0.6761709086719691	1.337585367603243	-0.3275720177670307	0.0793351385353547	-0.959918377688658	1.424353921693746	1.42435392169373	-0.06249777984922905	-0.174508466579982	0.2905252314052885	0.07048647301660473	0.104341329997659	0.02545464032524788	0.07035960281390671	-0.3004379134993841	-0.007130232804478728	-0.07298605650818688	-0.003189998808447028	-0.159560571927834	-0.1595605719278315	0.006818455729296435	-0.0002241596036891592	0.02828869206388445	0.004413894044692495	-0.3719901474696364	0.01946950487643265	0.002264401649295618	-0.3869254555589179	0.03696710669651675	0.02154022368066871	0.427378559402421	-39.79298510894935	-0.8796195573677454	-2.036383641503919	13.86723833005025	-803.3418300885911	-66.85787536453176	-0.0411798660080548	0.5437950267782711	-0.01627896670481029	1.552274425747044	-4.733200904890357	-0.1239484731308759	-1.708377650470868	0.391687989549876	-5.082309015969049	-5.082309015968865	-0.3324089369751799	-0.003239415844427844	-1.252382460783352	-0.7025062581376812	-5.97534468003296e-09	2.469722887466899e-08	5.948607024765639e-08	1.100663215078943e-09	-1.842675034872954e-08	1.305777516773537e-07	-1.656081395064074e-08
1.01	-0.102861341138789	-0.0563148602780895	0.6769520272454685	1.334344292245799	-0.3276487225121305	0.07851893192231837	-0.9599307719729675	1.422504464864311	1.422504464864281	-0.06244418369444103	-0.1745098278379067	0.2907457439208272	0.0704966838448213	0.1098953014305205	0.02531611844213006	0.08586392289936914	-0.3478351978518532	-0.008196679034251147	-0.09025317730599684	0.0006656856119719274	-0.2103339516474097	-0.2103339516474256	0.003910954511589119	-4.138994468076944e-05	0.01581251480542234	-0.002353426373377284	-0.3713071912486037	0.01971421994175698	0.002179622511957184	-0.3866688889316617	0.0367512112054393	0.02168522481582568	0.4270536538717783	-39.83056766950542	-0.948042048235673	-2.011735235128588	13.75026102664202	-803.0691814135838	-66.91376727108401	-0.04121249161083627	0.5699033992852832	-0.01137581041886475	1.549476537113176	-4.751701005922977	-0.09589416642028471	-1.735582975728424	0.3756902187945472	-5.075321511851739	-5.075321511855015	-0.2684047325093642	0.03006299782299582	-1.24543004432303	-0.6611134359729165	-1.688717442368636e-08	2.125956220442244e-08	8.961597743693928e-08	1.81316372878642e-08	-2.94627749667454e-08	1.585271511307598e-07	-2.289378316604575e-08
1.02	-0.1017331674656603	-0.05606218108295778	0.677888182167254	1.330627502283823	-0.3277356720131871	0.07753011336498189	-0.9599059731030058	1.4201471804253	1.420147180425216	-0.06241935935556234	-0.1745091558310091	0.2908414557265947	0.07043976776839701	0.1157974807731888	0.02522811610625193	0.101366872471852	-0.3955808344242382	-0.009179184004878101	-0.1075084453554839	0.004248632052705777	-0.2611260938429895	-0.2611260938430244	0.001064092560282526	0.0001824933562997477	0.003328550109134546	-0.009011486884710578	-0.3706242350273087	0.01995893500715775	0.002094843374700429	-0.3864123223043591	0.03653531571435537	0.02183022595108423	0.4267287483413643	-39.87948768757756	-1.013250567860433	-1.989002992009424	13.69400798784041	-802.941106562483	-66.94440565190565	-0.04124645989274072	0.6134366087397695	-0.00617505725699894	1.552000323151108	-4.802871348873416	-0.1071602213017462	-1.70600710080633	0.33714039361288	-5.086061511169925	-5.086061511169889	-0.3202810836949956	0.004983312549995572	-1.253939948348732	-0.6806542767904674	-2.799181713169044e-08	1.364629954801186e-08	1.213298124312671e-07	3.318124576558061e-08	-4.29772293042346e-08	1.860290786539433e-07	-2.994272803063839e-08
1.03	-0.100541632455971	-0.05580985955309428	0.6789797733948545	1.326427969919181	-0.3278321851707383	0.07636897488634752	-0.9598488736536916	1.41728178898316	1.417281788983072	-0.06242309606402878	-0.1745061974963517	0.2908131324023164	0.0703169968664189	0.1228389603399986	0.02527211961563285	0.1169944279157854	-0.4447543305626716	-0.01012802622470244	-0.1247053683522381	0.006897094849911906	-0.3119672749199471	-0.3119672749199468	-0.001840464193305809	0.0003945274026705968	-0.008908958555411775	-0.01550978036630409	-0.3708513254459989	0.02030006704010201	0.00197286126616394	-0.3856817716999861	0.03627318404257618	0.02208139343241113	0.4272029830000856	-39.94836014421863	-1.136038335760472	-1.939997595203485	13.2567644908283	-803.268155611701	-66.98572892777662	-0.04127245009795708	0.7989175130322103	0.01508725007874017	1.5745799996748	-5.038896507863047	-0.08944624404674831	-1.724482397201973	0.1875747787003006	-5.085401013931317	-5.085401013926504	-0.2799173428385247	0.02715311292512854	-1.196020906768589	-0.6294984939896909	-3.909842731892259e-08	5.990428769293451e-09	1.530598099542179e-07	4.82106362270208e-08	-5.651697374090212e-08	2.135264401370224e-07	-3.699897876920234e-08
1.04	-0.09926979987410448	-0.05555601814913144	0.6802289295458237	1.321723841040844	-0.3279383267548051	0.0750362776780706	-0.9597735144652115	1.413907534808656	1.413907534808588	-0.06245675321441295	-0.1745015508887616	0.2906649610751426	0.07013022670760144	0.1318569952020139	0.02553209092612053	0.1328798571463367	-0.4965001371625285	-0.01110486931354047	-0.141820191272658	0.007900579884199873	-0.3628986403158236	-0.3628986403157886	-0.004919995812773801	0.0005201479388139541	-0.02064105047040746	-0.02181133825374445	-0.3710784158647885	0.02064119907308294	0.00185087915768763	-0.3849512210955925	0.03601105237084613	0.02233256091381089	0.4276772176587195	-40.0287696153772	-1.255573923866505	-1.89291820878185	12.87456440109916	-803.7462590182558	-67.00219522999333	-0.04129929733612598	1.00874766778113	0.03701850296415127	1.603575080474678	-5.31733344115796	-0.1127603951044163	-1.689587085539485	0.008144841029265153	-5.104098374953781	-5.104098374953857	-0.3552760568708668	-0.0122993894954648	-1.152856598438973	-0.6413071579599394	-3.868909594554857e-08	-1.197784152368771e-08	1.823141833750434e-07	3.673445424654234e-08	-5.59680017569381e-08	2.143708559557376e-07	-4.345722390573324e-08
1.05	-0.0979026857941661	-0.05529864240145291	0.6816373983351999	1.316495702699082	-0.3280542293179445	0.07353296301932968	-0.9596906946814537	1.410023880999953	1.410023880999852	-0.06252192629523104	-0.1744960795827348	0.2904008315109025	0.06988111051237071	0.141419943720699	0.02596500956680589	0.1487743095247036	-0.5489287592208208	-0.01206575151595945	-0.1588220162581991	0.008951153056156416	-0.4138089277295215	-0.4138089277295217	-0.008123014809918092	0.0005586145582062268	-0.03221429977168158	-0.02800942764964393	-0.3708417949699934	0.02092836060901392	0.001690790395800655	-0.3841065780770647	0.03600370073334869	0.02263098741750225	0.4282718705897977	-39.99527166330234	-1.422387348357966	-1.830523926761522	12.44923650620356	-803.7411355449315	-67.07262264949435	-0.04136681086589793	0.9081831449460113	0.04972594918717629	1.576430650086193	-5.175815977549126	-0.08629039798684528	-1.702411567657289	0.196679983855565	-5.081004826225516	-5.081004826231163	-0.3041009282022437	0.009642404990387488	-1.163977313269135	-0.6087087903024884	-3.791989139840567e-08	-3.026837430148952e-08	2.114911935426775e-07	2.442997312725408e-08	-5.497875738482944e-08	2.143823672224415e-07	-4.98967813672006e-08
1.06	-0.09644431928881191	-0.05503627798645719	0.6832036217150703	1.310749240258795	-0.3281794483561262	0.07186024383815455	-0.9595887358802648	1.405631822136784	1.405631822136709	-0.06261938678748125	-0.1744906790670256	0.2900200858101921	0.06957008363120692	0.1501074802807132	0.02652982438955976	0.164430775245912	-0.6001649568545326	-0.01296816432547163	-0.1757010957475643	0.01172838337123081	-0.4645796512091477	-0.4645796512091828	-0.01137747808967759	0.0005059898709444449	-0.04396427776486635	-0.03419347544145616	-0.3706051740755152	0.02121552214494044	0.001530701633989799	-0.3832619350585349	0.03599634909592649	0.0229294139212222	0.4288665235205993	-39.97340941294076	-1.58599264583055	-1.769978586750331	12.07518231544049	-803.8901491810476	-67.11957798417659	-0.04143466463210511	0.8336652760473222	0.06339773937759217	1.555977749042938	-5.07884855624166	-0.1010665165229672	-1.665037986304355	0.3534762696529059	-5.07618558813953	-5.076185588139597	-0.3655649133938333	-0.03051765082621511	-1.188202336821577	-0.6384988371426145	-4.13594598330955e-08	-4.251300388948893e-08	2.317069316164576e-07	2.358196830458429e-08	-5.829578965861978e-08	2.198218061144613e-07	-5.475180293216595e-08
